<svg width="55" height="55" viewBox="0 0 55 55" fill="none" xmlns="http://www.w3.org/2000/svg">
<path d="M37.9816 18.9628L33.6763 18.8048L32.7429 44.2943L37.0482 44.4516L37.9816 18.9628Z" fill="#8F3636"/>
<path d="M29.654 18.8838H25.3459V44.3734H29.654V18.8838Z" fill="#8F3636"/>
<path d="M22.2563 44.2937L21.3229 18.8041L17.0176 18.9621L17.9511 44.4516L22.2563 44.2937Z" fill="#8F3636"/>
<path d="M1.86688 8.2572V12.5652H6.35594L9.91719 53.0348C10.0148 54.147 10.9462 55 12.0626 55H42.8648C43.9813 55 44.9133 54.1463 45.0102 53.0341L48.5716 12.5652H53.1331V8.2572H1.86688ZM40.8917 50.692H14.0351L10.6805 12.5652H44.2471L40.8917 50.692Z" fill="#8F3636"/>
<path d="M34.5366 0H20.4635C18.4839 0 16.8734 1.61047 16.8734 3.59004V10.4112H21.1815V4.30805H33.8186V10.4112H38.1266V3.59004C38.1266 1.61047 36.5161 0 34.5366 0Z" fill="#8F3636"/>
</svg>
