<svg width="55" height="55" viewBox="0 0 55 55" fill="none" xmlns="http://www.w3.org/2000/svg">
<path d="M41.3275 0L6.56294 34.7646L0 55L20.2355 48.4372L55 13.6725L41.3275 0ZM50.4425 13.6725L45.8849 18.2301L36.7699 9.11507L41.3273 4.55748L50.4425 13.6725ZM8.6972 38.63L16.37 46.3029L12.9287 47.419L7.58098 42.0713L8.6972 38.63ZM10.2549 35.6302L34.4911 11.3939L37.9093 14.8121L13.673 39.0483L10.2549 35.6302ZM15.9517 41.327L40.188 17.0906L43.6062 20.5088L19.3699 44.7452L15.9517 41.327ZM6.46497 45.5127L9.48739 48.5351L5.01413 49.9859L6.46497 45.5127Z" fill="#505571"/>
</svg>
