<svg width="61" height="62" viewBox="0 0 61 62" fill="none" xmlns="http://www.w3.org/2000/svg">
<ellipse cx="30.6976" cy="31.1332" rx="16.9119" ry="17.2962" stroke="white" stroke-width="15"/>
<rect x="26.7946" width="8.19996" height="9.56662" rx="2" fill="white"/>
<rect x="26.7946" y="51.7623" width="8.19996" height="9.56662" rx="2" fill="white"/>
<rect x="49.4532" y="6.3075" width="8.19996" height="9.56662" rx="2" transform="rotate(45 49.4532 6.3075)" fill="white"/>
<rect x="12.5334" y="43.2273" width="8.19996" height="9.56662" rx="2" transform="rotate(45 12.5334 43.2273)" fill="white"/>
<rect x="55.2515" y="49.2231" width="8.19996" height="9.56662" rx="2" transform="rotate(135 55.2515 49.2231)" fill="white"/>
<rect x="19.1004" y="13.0721" width="8.19996" height="9.56662" rx="2" transform="rotate(135 19.1004 13.0721)" fill="white"/>
<rect x="60.7902" y="26.5645" width="8.19996" height="9.56662" rx="2" transform="rotate(90 60.7902 26.5645)" fill="white"/>
<rect x="10.2842" y="26.1365" width="8.19996" height="9.56662" rx="2" transform="rotate(90 10.2842 26.1365)" fill="white"/>
</svg>
